<svg id="Layer_1" enable-background="new 0 0 512 512" height="512" viewBox="0 0 512 512" width="512" xmlns="http://www.w3.org/2000/svg"><g><g><circle cx="258.997" cy="136" fill="#d0f2d2" r="40"/></g><g><circle cx="366" cy="176" fill="#ffdede" r="20"/></g><path d="m46 502c0-77.32 62.68-140 140-140s140 62.68 140 140" fill="#99ebfa"/><path d="m283.99 402h-195.98c25.26-24.74 59.84-40 97.99-40s72.73 15.26 97.99 40z" fill="#ccf5fc"/><g fill="#fff"><path d="m126 502v-40h40v40"/><path d="m206 502v-40h40v40"/><path d="m246 308.274c-18.301 18.301-47.973 18.301-66.274 0s-18.301-47.973 0-66.274z"/></g><path d="m346 342h120v80h-120z" fill="#ccf5fc"/><circle cx="86" cy="130" fill="#fff" r="40"/><g><circle cx="426" cy="50" fill="#fff" r="40"/><g fill="#33d6f5"><path d="m366 206c16.542 0 30-13.458 30-30s-13.458-30-30-30-30 13.458-30 30 13.458 30 30 30zm0-40c5.514 0 10 4.486 10 10s-4.486 10-10 10-10-4.486-10-10 4.486-10 10-10z"/><path d="m199.276 174.048c6.647 0 12.974-1.225 16.331-1.875 2.354-.456 4.799-1.002 7.306-1.615 9.107 9.505 21.911 15.442 36.084 15.442 27.57 0 50-22.43 50-50 0-1.254-.062-2.493-.153-3.724 19.921-13.089 38.555-30.026 31.722-44.682-3.747-8.034-13.139-11.408-27.926-10.018-10.57.992-24.052 4.318-38.986 9.618-.478.169-.927.382-1.361.613-4.236-1.17-8.691-1.809-13.295-1.809-20.739 0-38.565 12.693-46.128 30.717-.436.198-.866.418-1.28.685-28.451 18.292-39.944 33.857-34.159 46.266 3.858 8.275 13.129 10.383 21.845 10.382zm59.721-8.048c-4.447 0-8.666-.98-12.466-2.723 8.166-2.976 16.638-6.49 25.145-10.457 3.089-1.441 8.945-4.255 16.007-8.043-3.761 12.273-15.197 21.223-28.686 21.223zm60.934-68.752c-2.848 3.562-8.499 8.77-17.031 14.845-2.141-3.916-4.799-7.508-7.868-10.702 11.94-3.29 20.225-4.24 24.899-4.143zm-60.934 8.752c11.845 0 22.106 6.902 26.98 16.894-6.647 3.841-14.22 7.82-22.754 11.799-11.939 5.568-22.687 9.708-31.973 12.701-1.449-3.516-2.254-7.362-2.254-11.394.001-16.542 13.459-30 30.001-30zm-49.461 37.308c.468 3.181 1.241 6.263 2.281 9.221-5.91 1.157-10.542 1.611-13.696 1.537 2.003-2.51 5.565-6.158 11.415-10.758z"/><path d="m466 332h-120c-5.522 0-10 4.478-10 10v80c0 5.522 4.478 10 10 10h50v60h-60.341c-2.479-37.469-18.769-71.222-43.824-96.193-.526-.665-1.137-1.258-1.813-1.771-24.742-23.846-57.627-39.287-94.022-41.695v-22.92c5.484 1.693 11.172 2.552 16.863 2.552 14.562 0 29.123-5.543 40.208-16.628 3.905-3.905 3.905-10.237 0-14.143l-26.066-26.066 26.066-26.066c3.905-3.905 3.905-10.237 0-14.143-3.906-3.904-10.236-3.904-14.143 0l-26.066 26.066-26.066-26.066c-3.906-3.904-10.236-3.904-14.143 0-22.17 22.171-22.17 58.245 0 80.417 1.08 1.08 2.203 2.092 3.346 3.066v33.929c-36.385 2.407-69.263 17.84-94.001 41.675-.691.52-1.313 1.124-1.848 1.804-27.257 27.176-44.15 64.743-44.15 106.182 0 5.522 4.478 10 10 10h360c5.522 0 10-4.478 10-10v-70h50c5.522 0 10-4.478 10-10v-80c0-5.522-4.478-10-10-10zm-285.3-74.884 50.184 50.184c-14.037 7.857-32.164 5.826-44.087-6.097s-13.954-30.049-6.097-44.087zm55.3 234.884h-20v-20h20zm10-40h-40c-5.523 0-10 4.478-10 10v30h-20v-30c0-5.522-4.477-10-10-10h-40c-5.522 0-10 4.478-10 10v30h-59.619c2.364-30.938 15.609-58.878 35.901-80h187.436c20.292 21.122 33.537 49.062 35.901 80h-59.619v-30c0-5.522-4.477-10-10-10zm-90 40h-20v-20h20zm30-120c25.418 0 49.151 7.339 69.204 20h-138.408c20.053-12.661 43.786-20 69.204-20zm270 0h-40v-20h40zm-60-20v20h-40v-20zm-40 60v-20h40v20zm60 0v-20h40v20z"/><path d="m46 140c16.542 0 30 13.458 30 30 0 5.523 4.478 10 10 10s10-4.477 10-10c0-16.542 13.458-30 30-30 5.523 0 10-4.477 10-10 0-5.522-4.477-10-10-10-16.542 0-30-13.458-30-30 0-5.522-4.478-10-10-10s-10 4.478-10 10c0 16.542-13.458 30-30 30-5.522 0-10 4.478-10 10 0 5.523 4.478 10 10 10zm40-20.035c2.854 3.8 6.235 7.181 10.035 10.035-3.8 2.854-7.181 6.235-10.035 10.035-2.854-3.8-6.235-7.181-10.035-10.035 3.8-2.854 7.181-6.235 10.035-10.035z"/><path d="m386 60c16.542 0 30 13.458 30 30 0 5.522 4.478 10 10 10s10-4.478 10-10c0-16.542 13.458-30 30-30 5.522 0 10-4.478 10-10s-4.478-10-10-10c-16.542 0-30-13.458-30-30 0-5.523-4.478-10-10-10s-10 4.477-10 10c0 16.542-13.458 30-30 30-5.522 0-10 4.478-10 10s4.478 10 10 10zm40-20.035c2.853 3.8 6.235 7.181 10.035 10.035-3.8 2.854-7.181 6.235-10.035 10.035-2.853-3.8-6.235-7.181-10.035-10.035 3.8-2.854 7.182-6.235 10.035-10.035z"/></g></g></g></svg>