<svg id="Layer_1" enable-background="new 0 0 512 512" height="512" viewBox="0 0 512 512" width="512" xmlns="http://www.w3.org/2000/svg"><g><path d="m416 390v40h-40v-40" fill="#99ebfa"/><path d="m436 390v-240c0-22.091-17.909-40-40-40-22.091 0-40 17.909-40 40v240" fill="#fff"/><path d="m356 256h80v40h-80z" fill="#fff7bf"/><path d="m436 150v20h-80v-20c0-11.04 4.48-21.04 11.72-28.28s17.24-11.72 28.28-11.72c22.09 0 40 17.91 40 40z" fill="#ccf5fc"/><path d="m156 390v-240c0-22.091-17.909-40-40-40-22.091 0-40 17.909-40 40v240" fill="#fff"/><path d="m136 390v40h-40v-40" fill="#99ebfa"/><path d="m156 390v-240c0-22.091-17.909-40-40-40-22.091 0-40 17.909-40 40v240" fill="#fff"/><path d="m76 256h80v40h-80z" fill="#fff7bf"/><path d="m156 150v20h-80v-20c0-11.04 4.48-21.04 11.72-28.28s17.24-11.72 28.28-11.72c22.09 0 40 17.91 40 40z" fill="#ccf5fc"/><path d="m356 390v-280c0-55.228-44.772-100-100-100-55.228 0-100 44.771-100 100v280" fill="#fff"/><path d="m356 110h-200c0-27.62 11.19-52.62 29.29-70.71 18.09-18.1 43.09-29.29 70.71-29.29 55.23 0 100 44.77 100 100z" fill="#ccf5fc"/><path d="m136 350h80v-80z" fill="#99ebfa"/><path d="m296 350v-140l-40-60-40 60v140" fill="#fff"/><path d="m296 210h-80l40-60z" fill="#ccf5fc"/><path d="m296 270v80h80z" fill="#99ebfa"/><path d="m216 430c0-22.091 17.909-40 40-40s40 17.909 40 40z" fill="#99ebfa"/><circle cx="256" cy="260" fill="#ccf5fc" r="20"/><g fill="#33d6f5"><path d="m396 456c-5.523 0-10 4.478-10 10v36c0 5.522 4.477 10 10 10s10-4.478 10-10v-36c0-5.522-4.477-10-10-10z"/><path d="m396 100c-11.247 0-21.638 3.735-30 10.027v-.027c0-60.654-49.346-110-110-110s-110 49.346-110 110v.027c-8.363-6.292-18.753-10.027-30-10.027-27.57 0-50 22.43-50 50v240c0 5.522 4.477 10 10 10h10v30c0 5.522 4.477 10 10 10h40c5.523 0 10-4.478 10-10v-30h70.027c-6.292 8.362-10.027 18.752-10.027 30 0 5.522 4.477 10 10 10h80c5.523 0 10-4.478 10-10 0-11.248-3.735-21.638-10.027-30h70.027v30c0 5.522 4.477 10 10 10h40c5.523 0 10-4.478 10-10v-30h10c5.523 0 10-4.478 10-10v-240c0-27.57-22.43-50-50-50zm-270 320h-20v-20h20zm20-94.143-17.071 17.071c-2.86 2.86-3.715 7.161-2.167 10.898 1.548 3.736 5.194 6.173 9.239 6.173h10v20h-60.001v-74h60zm0-39.857h-60v-20h60zm0-40h-60v-66h60zm0-86h-60v-10c0-16.542 13.458-30 30-30s30 13.458 30 30zm110-140c46.246 0 84.451 35.063 89.441 80h-178.882c4.99-44.937 43.195-80 89.441-80zm-90 100h180v185.857l-40-40v-55.857c0-.45-.04-.891-.098-1.325-.013-.101-.029-.201-.046-.301-.069-.422-.158-.838-.278-1.241-.004-.013-.006-.026-.01-.039-.131-.433-.297-.849-.483-1.255-.035-.076-.072-.151-.109-.226-.191-.39-.4-.769-.638-1.128-.007-.01-.011-.022-.018-.032l-.015-.023c-.008-.012-.016-.024-.024-.036l-39.961-59.941c-1.854-2.782-4.977-4.453-8.32-4.453-3.344 0-6.466 1.671-8.32 4.453l-39.96 59.941c-.008.012-.016.024-.024.036l-.015.023c-.007.01-.011.022-.018.032-.238.359-.447.739-.638 1.128-.037.075-.074.15-.109.226-.186.406-.352.822-.483 1.255-.004.013-.006.026-.01.039-.12.403-.209.818-.278 1.241-.017.101-.033.2-.046.301-.059.434-.099.875-.099 1.325v55.857l-40 40zm60 220v-20h60v20zm60-69.995v29.995h-60v-29.995c0-.003 0-.007 0-.01v-49.995h60v49.995zm-51.315-70.005 21.315-31.973 21.315 31.973zm-28.685 94.143v45.857h-45.858zm21.713 125.857c4.127-11.641 15.249-20 28.287-20s24.159 8.359 28.287 20zm118.287-40h-180v-20h180zm-40-40v-45.857l45.858 45.857zm100 80h-20v-20h20zm20-40h-60v-20h10c4.044 0 7.691-2.436 9.239-6.173s.692-8.038-2.168-10.898l-17.071-17.072v-19.857h60zm0-94h-60v-20h60zm0-40h-60v-66h60zm0-86h-60v-10c0-16.542 13.458-30 30-30s30 13.458 30 30z"/><path d="m236 456c-5.523 0-10 4.478-10 10v36c0 5.522 4.477 10 10 10s10-4.478 10-10v-36c0-5.522-4.477-10-10-10z"/><path d="m116 456c-5.523 0-10 4.478-10 10v36c0 5.522 4.477 10 10 10s10-4.478 10-10v-36c0-5.522-4.477-10-10-10z"/><path d="m276 456c-5.523 0-10 4.478-10 10v36c0 5.522 4.477 10 10 10s10-4.478 10-10v-36c0-5.522-4.477-10-10-10z"/></g></g></svg>